<svg xmlns="http://www.w3.org/2000/svg" viewBox="0 0 465.77 258.38"><defs><style>.cls-1{fill:#e6d2c3;}.cls-2{fill:#359ac4;}.cls-3{fill:#fff;}</style></defs><g id="Layer_2" data-name="Layer 2"><g id="Layer_1-2" data-name="Layer 1"><g id="bXRpbN"><path class="cls-1" d="M218.83,167.35c-3.16,2.62-6.66,5.39-10.77,5.5a18.6,18.6,0,0,1-6.66-1.47c-10.19-3.61-20.08-5.17-30.8-6.8a36.26,36.26,0,0,0-9.74.35c-3.21.4-6.4,1-9.59,1.53-1.37.23-3.43.18-4.67.76-.9.42-1.21,1.31-2.16,1.79l-17.14,8.58a11.07,11.07,0,0,1-2.45,1c-3,.69-5.61-1.06-8.3-2-3.23-1.12-6.66-1.86-10-2.74a156.46,156.46,0,0,0-20.88-4.38,55.12,55.12,0,0,1-16-4.77,68.86,68.86,0,0,0-8-2.59,18.79,18.79,0,0,1-3.08-1c-1.46-.76-1.51-1.93-.4-3.17a4.51,4.51,0,0,0,1-1.76c.46-1.66.66-3.4,1.2-5,6.1-18.34,13.45-36.24,21.3-53.9,3.92-8.82,7.88-17.65,12.06-26.36,1.93-4,1.21-7.28,2.09-11.63s2.79-8.45,4.67-12.44L105,37.37c1.92-4.06,3.92-8.26,6.94-11.65,1.38-1.54,3.37-2.54,4.68-4.06s2-3.71,2.81-5.33A8.65,8.65,0,0,1,124.1,12c8-2.93,15.84-6.39,24.35-7.12,16.49-1.41,32.43.56,46.12,10.86A61.21,61.21,0,0,1,215.43,44c1.17,3.18,2.52,6.3,3.93,9.39.31.69,1.17,1.14,1.78,1.7a14.9,14.9,0,0,0,1.24-2c3.11-7,6-14.13,9.33-21a74.24,74.24,0,0,1,6.53-10.75A39.21,39.21,0,0,1,252,9.58c8.73-4.63,17.83-8,27.73-9a41.11,41.11,0,0,1,22.68,3.61,84.45,84.45,0,0,1,31.27,25.38,53.41,53.41,0,0,1,5.69,9.72,165.43,165.43,0,0,0,12.82,23.17,123,123,0,0,1,11.39,21.06c2.83,6.82,2.34,14.57,7.28,20.4.9,1.07,1.92,2,2.74,3.19a22.89,22.89,0,0,1,2.29,4.39L382.62,127a80.7,80.7,0,0,0,4.44,9.17c3.29,5.57,12,19.49-.38,20.93a4.94,4.94,0,0,0-1.63.56q-11.9,6.09-23.78,12.23a16.65,16.65,0,0,0-2.07,1.52l-.13,0,.1-.05,10-4.11c.87-.36,1.73-.74,2.56-1.13a88.12,88.12,0,0,1-8.1,4.51c-5.3,2.28-10.67,4.44-16.13,6.28a76.82,76.82,0,0,1-9.95,2.13,3.94,3.94,0,0,1-3.73-1.3,7.39,7.39,0,0,0-2.12-1.45c-5-2.34-10-4.63-15-6.93a22.6,22.6,0,0,1-3.14-1.49c-6.19-4.18-13.22-5.74-20.44-6.83-9.88-1.5-20.5-3.34-30.49-3.07-4.46.12-9.1,3.26-13.14,5q-7.35,3.09-14.82,5.84a31.41,31.41,0,0,1-15.06,1.38c-3.4-.51-6.95-.15-10.41,0a45.88,45.88,0,0,1-12.09-.83c-2.86-.59-5.71-1.16-8.57-1.72m100.26-69c-.58-5.25-.93-10.54-1.8-15.74-1.63-9.61-5.63-18.06-13.12-24.62a10.06,10.06,0,0,0-8.45-2.47,31.65,31.65,0,0,0-13.34,5.54c-4.28,2.85-8.51,5.79-12.87,8.51a26.31,26.31,0,0,1-6.3,2.86c-2.91.87-6,.71-8-1.89-3.13-4.11-4.15-2-7.09.47a10.38,10.38,0,0,1-4.34,2.36c-3.54.75-10.17-1-13.08-3-2.57-1.76-5-3.8-7.51-5.56-2.74-1.88-5.59-3.61-8.42-5.35-3.72-2.27-7.59-2.12-11.49-.52a25.55,25.55,0,0,0-3.87,2c-7.2,4.55-11.84,11.18-15,18.91-3.05,7.37-3.7,15.09-3.55,23,.12,5.87,1.34,14,5.08,18.77,1.63,2.08,4.47,2.92,6.75,4.43,2.59,1.72,5,3.7,7.59,5.4,3,1.95,5.54,1.8,8.57,3.05,3.35,1.38,6.73,2.7,9.95,4.33q8.92,4.5,17.66,9.35a73.83,73.83,0,0,1,8.6,5.45c2.46,1.84,4.91,2.48,7.54.86a22.48,22.48,0,0,0,5.34-4.29,41.8,41.8,0,0,1,16.24-12,113.07,113.07,0,0,1,23-7,21.85,21.85,0,0,0,13.38-8C286,116.36,289.27,108.16,288.79,98.72Z"/><path class="cls-1" d="M372.64,165.77l-.92.41,0,0,.89-.43Z"/></g><g id="bJ5A9k"><path class="cls-2" d="M8.09,201.77H6.48l-2.05,1L3,201.58v-1.34a8,8,0,0,1,1.63-1.49c1.92-.95,3.9-1.79,5.87-2.62q2.6-1.09,5.24-2.07a44,44,0,0,1,6-1.89c4.15-.91,8.92-3.82,12.36-6.25,2.49-1.77,3.84-2.44,2.44-5.54-1.6-3.53-3.12-7.1-4.4-10.77-.59-1.7-1.31-3.37-1.82-5.11s-1-3.76-1.61-5.62c-.3-1-.55-2-.78-2.93a4.27,4.27,0,0,1,2-5c.37.12.82.25,1.26.43a4.13,4.13,0,0,1,1.45.68,18.18,18.18,0,0,0,5.89,4.1c2.08.69,4.32.33,6.5,1.31A56.38,56.38,0,0,0,51,160.2c1.49.47,3,.65,4.57,1a37.54,37.54,0,0,1,6,2.2c5.19,2.22,10.69,6,16.26,6.39A65,65,0,0,1,97.62,174a46.19,46.19,0,0,0,7.37,2.46c3.75.77,7.39.16,11,1.4a61.92,61.92,0,0,0,13,3.41,50.23,50.23,0,0,1,14.85,4.13c10,4.2,20.74,1.27,31.21,3.09,4.18.72,8.22,2,12.33,3,3.89,1,7.58,1,11.43,1.69,3.43.63,6.89-.07,10.27.42,7.06,1,13.14-.42,20-1.42a92,92,0,0,1,24.3-.29,52,52,0,0,0,15.46-.08c.74-.13,1.57.31,2.23-.42.14-.14.57-.05.85,0a6.9,6.9,0,0,0,2.66-.42,17.44,17.44,0,0,0,2.67-.37c3.57-1.43,7.75-1,11.44-2.41,4.18-1.63,9-1.32,13.39-1.85,5.35-.63,11.05-2.63,16.38-3.77,10.74-2.3,21.57-4.27,32.1-7.46,9.18-2.78,17.58-7.06,26.42-10.6,2.37-.95,4.58-2.25,6.93-3.22a57.51,57.51,0,0,0,6.88-3.35c2.86-1.66,5.93-2.9,8.7-4.74a58.22,58.22,0,0,1,5.51-3c2.4-1.24,4.7-2.68,7.08-3.93,3.75-2,7.17-4.41,10.72-6.65,1.49-.94,2.9-2.06,4.45-2.93,1.35-.77,2.76-1.45,4-2.34.71-.5,1.39-.12,2.1-.41l1.09,1.33v1.53c-.05.06-.11.21-.21.28-1.45.94-1.49,2.59-1.89,4a28.28,28.28,0,0,0-.49,3.94,7.17,7.17,0,0,1-.45,2.19,42,42,0,0,0-1.89,6c-.75,2.37-1.44,4.77-2,7.2s-2.07,5.23-1.9,7.54c2.62.14,5.21-.69,7.87-.67,4,0,7.93.21,11.89.32a28.22,28.22,0,0,1,6.56.68c2.56.68,9.6,6.63,3.23,6.63-.72,0-4.41,3.69-5.25,4.38-2.6,2.13-5,4.58-7.48,6.85a66.62,66.62,0,0,1-6.16,5.22c-1.84,1.32-3.81,2.46-5.77,3.59-5,2.89-9.82,5.92-14.62,9-4.57,3-8.38,6.5-12.81,9.5A176.68,176.68,0,0,1,351,237c-8.91,2.38-17.68,5.06-26.56,7.39-2.58.68-5.2,1.1-7.78,1.7-2.2.51-4.39,1-6.64,1.32-1,.14-1.93.74-2.91.79a24.38,24.38,0,0,0-2.86.48,28.59,28.59,0,0,0-3.08.47,46.45,46.45,0,0,1-4.64.93,22.52,22.52,0,0,0-3.07.41c-1,.33-2,.15-2.88.41-2.57.73-5.31.57-7.81,1.63-.74.31-1.59.12-2.43.43a18.61,18.61,0,0,1-3.92.51c-.75.1-1.48.32-2.22.42s-1.42-.17-2,.43c-.11.11-.42,0-.64,0-2,.14-4.1.16-6.12.46a42.35,42.35,0,0,1-6.83.84c-1.25.77-2.68.13-3.94.47-2.48.67-5,.31-7.45.38a49.54,49.54,0,0,1-7.61,0c-3.14-.4-6.3-.08-9.39-.46-1.84-.22-3.71,0-5.48-.4-2.2-.45-4.44,0-6.57-.44-3.29-.62-6.6,0-9.83-.44-3.65-.55-7.32,0-10.92-.44-2.57-.34-5.14,0-7.65-.43a41.5,41.5,0,0,0-4.85-.37c-.7-.47-1.71-.61-1.85-1.73a17.33,17.33,0,0,0-2.6,0c-.71.1-1.38.53-2.09.69a16.59,16.59,0,0,1-2.09.2,6.53,6.53,0,0,0-2.93-1,12.87,12.87,0,0,1-4.23-.79,2.22,2.22,0,0,0-.64,0c-1.32-.14-2.63-.36-3.95-.41s-2.48-.43-3.73-.56a15.54,15.54,0,0,1-3.07-.39c-1.05-.34-2.23,0-3.07-.45-1.19-.61-2.44-.12-3.63-.72-1-.5-2.36-.21-3.47-.54-2.41-.71-4.85-1.27-7.3-1.83s-4.59-1.2-6.92-1.69a32.91,32.91,0,0,1-4.73-1.15,20.83,20.83,0,0,0-2.63-.47c-2.06-.46-4.14-1-6.21-1.25-2.41-.3-4.62-1.44-7.06-1.39-2-1-4.29-1.18-6.42-1.86-.83-.26-1.68-.48-2.51-.76a3.51,3.51,0,0,1-1.45-.65,3.21,3.21,0,0,0-1.67-.75c-2.26-.66-4.49-1.42-6.76-2.05s-4.6-1.15-6.89-1.76c-1.43-.38-2.81-1-4.26-1.26a76.33,76.33,0,0,1-9.52-2.78c-4-1.3-7.91-3-12-4.24a56.06,56.06,0,0,1-6.11-2.57c-3.6-1.64-7.29-3.07-11-4.35-1.71-.59-3.33-1.44-5-2a87,87,0,0,1-9.5-3.86c-3.06-1.37-6.09-2.79-9.17-4.12-2.15-.94-4.34-1.77-6.53-2.62-1.69-.64-3.41-1.21-5.1-1.87C8.51,202.38,8.31,202,8.09,201.77Zm441.46-27.36h-.14v.43h.14ZM12.33,200h.14v-.44h-.14Z"/><ellipse class="cls-2" cx="390.27" cy="157.25" rx="0.1" ry="0.31"/><ellipse class="cls-2" cx="389.4" cy="157.69" rx="0.1" ry="0.31"/><path class="cls-2" d="M230.29,221.3a27.29,27.29,0,0,1,5.14.07,38.45,38.45,0,0,0,5.31.4c-.88,1.7-1.75,3.26-2.51,4.87a36,36,0,0,1-4.21,6.7,11.4,11.4,0,0,1-2.86,2,3,3,0,0,1-1.28-2.73c-.09-2.45-.06-4.91,0-7.37,0-.59.33-1.17.4-1.77A21.12,21.12,0,0,0,230.29,221.3Z"/><path class="cls-2" d="M199,217.05c-.13-1.64.87-2.81,1.59-4s1-2.47,2.25-3.21c1-2.09,2.92-3.05,4.86-3.93a7.66,7.66,0,0,1,2.21-.32l.93.75a10.31,10.31,0,0,1-2.12,4.15,24.66,24.66,0,0,1-8.39,6C199.86,216.72,199.41,216.87,199,217.05Z"/><path class="cls-2" d="M266.08,222.94a17.73,17.73,0,0,1,2.33-10.72c1.14-2,2.1-4.36,4.53-5.27a1,1,0,0,1,.28.08c.16.14.31.3.61.61a18.55,18.55,0,0,1-2.62,8.23A31.93,31.93,0,0,1,266.08,222.94Z"/><path class="cls-2" d="M185.87,234.14V235a12.83,12.83,0,0,1-3.12,2.43,2.63,2.63,0,0,1-3-.36,9.43,9.43,0,0,1-1.24-1.21,3,3,0,0,1,1.21-2.52c1.11-1,2.49-.73,3.74-.73Z"/><path class="cls-2" d="M285.8,221.74h1.37c0,.18.18.41.13.56a4.51,4.51,0,0,1-.71,1.64,13,13,0,0,1-4.2,3.46C282,225.85,282.41,225.08,285.8,221.74Z"/><path class="cls-2" d="M199,217l-.31.36-.13-.14.35-.3Z"/><path class="cls-2" d="M387.41,202.12c.11,1.19-.16,2.35.47,3.33a5,5,0,0,0-.43,2.77c-.39.85-.63,1.48-.94,2.07A7.84,7.84,0,0,1,382,214a3,3,0,0,1-3.2-.23,18.79,18.79,0,0,1,4-5.88C384.4,206.07,385.81,204.13,387.41,202.12Z"/><path class="cls-2" d="M401.22,171.41a5.29,5.29,0,0,1,4.76,1.35,8.34,8.34,0,0,1,2.25,4.22,18.08,18.08,0,0,0-4.13.4,3.82,3.82,0,0,1-2.39-.4c-1.08-.45-2.33-.17-3.34-.84l-.92-.56C397.56,173.15,399.42,172.31,401.22,171.41Z"/><path class="cls-2" d="M403.12,182.25h5.19a6.19,6.19,0,0,1-2.38,5.61h-.86A9.36,9.36,0,0,1,403.12,182.25Z"/><path class="cls-2" d="M335.25,222.74l-2.38-4.18c1.32-1.13,3-.85,4.45-1.77C337.52,219.18,337.12,221.1,335.25,222.74Z"/><path class="cls-2" d="M352.57,184.67c.31,3.69-1.29,6.61-2.56,9.65,0-1.2-.06-2.4,0-3.6a11.18,11.18,0,0,1,.47-3.24C350.88,186.5,351,185.21,352.57,184.67Z"/><path class="cls-2" d="M332.19,213.71v-4c1.85-.48,2.82.8,4,2-.32.31-.58.74-1,.92C334.34,213,333.37,213.29,332.19,213.71Z"/><path class="cls-2" d="M101.72,188l1,1v3c-1.78,2.95-4.92,3.94-7.94,5-1.58.56-3.22,1.21-5,.83-.42-.9.52-1.08.79-1.58A26.41,26.41,0,0,1,96,189.6,6.5,6.5,0,0,1,101.72,188Z"/><path class="cls-2" d="M101.06,217a15.49,15.49,0,0,0,6.09,1.77c-.39,1.73-1.81,2.55-2.77,3.71a7.22,7.22,0,0,1-3.72,2.2l-1.83-1.33A8.6,8.6,0,0,1,101.06,217Z"/><path class="cls-2" d="M105.46,211.66,103.82,210h-1.88l-.08-1c1.29-1.51,2.93-1,4.41-1.13,2.16.76,2.59,2.48,2.56,4.46,0,.64,0,1.28,0,2.06a9.81,9.81,0,0,1-4-.92Z"/><path class="cls-2" d="M65.78,214.87v-2.14l1.27-.79c2.87-.87,2.73-.4,6,.8-1.09,1.76-2.93,2.34-4.68,2.84C67.66,215.79,66.65,215.13,65.78,214.87Z"/><path class="cls-2" d="M140.9,218.42a8.88,8.88,0,0,1,6.4-5.38l.61.55c0,.1,0,.2-.09.3-.5,1.43-1.77,2-3,2.63S142.22,217.79,140.9,218.42Z"/></g><path d="M222.33,258.29a440,440,0,0,1-60.17-5.88c-21.61-3.67-43.13-7.73-64.24-13.68A547.59,547.59,0,0,1,31,215.17c-6-2.57-12.1-4.91-18.08-7.54a74.93,74.93,0,0,1-10-5.15c-4.07-2.59-3.84-4.79.59-6.6,7.78-3.2,15.64-6.21,23.48-9.3.67-.26,1.36-.48,2.05-.73,5.31-1.91,5.24-1.89,3.52-7.48-2.65-8.6-5.19-17.23-7.75-25.85a20.88,20.88,0,0,1-.93-4.24,2.76,2.76,0,0,1,.9-2.2,3,3,0,0,1,2.39.06,10.06,10.06,0,0,1,2.44,1.8c6.66,5.71,14.7,8.67,22.81,11.45,2.25.78,3,.38,4.17-1.88a139.45,139.45,0,0,0,8.23-18.22c4.46-12.89,9.28-25.66,14.12-38.41,7-18.46,14.19-36.84,21.2-55.29,3.33-8.75,7.55-17,13.59-24.17A49.51,49.51,0,0,1,143.54,4c6.33-1.16,12.76-.82,19.11-.17a103,103,0,0,1,20,4.18,41.93,41.93,0,0,1,22.54,16.22c6,8.47,11.29,17.24,13.92,27.4a3.41,3.41,0,0,0,.51,1.19,2.41,2.41,0,0,0,1,.7c.08,0,.45-.35.53-.59.37-1.1.7-2.21,1-3.33a100.91,100.91,0,0,1,7-17.35A61.33,61.33,0,0,1,241.43,15.5a45.22,45.22,0,0,1,14.82-9.74c9-3.53,18.14-6,27.94-5.75A53.47,53.47,0,0,1,320.1,14.45a97.64,97.64,0,0,1,12.34,14.06,282.79,282.79,0,0,1,28.45,48.33c9,19,17.87,38.11,26.85,57.14,1.73,3.67,3.68,7.24,5.61,10.82a40,40,0,0,0,2.66,4,2,2,0,0,0,2.67.69c1.17-.58,2.37-1.11,3.5-1.76q15.29-8.79,30.54-17.62c1.22-.7,2.4-2,3.95-1.11,1.71,1,1.21,2.79,1.05,4.34a63.23,63.23,0,0,1-4.13,16.86c-1.43,3.65-2.85,7.3-4.12,11-1,2.88-.76,3.39,2.16,3.73,7.92.93,15.86,1.69,23.79,2.49,2.45.25,4.92.38,7.37.61a8.52,8.52,0,0,1,2.1.53,1.3,1.3,0,0,1,.51,2.13c-.31.3-.7.51-1,.78-4,3.18-7.9,6.38-11.88,9.52-5.93,4.68-11.69,9.58-17.87,13.89-10.22,7.15-20.64,14-31.12,20.81-19.34,12.47-40.66,20.45-62.57,26.95-13.78,4.08-27.63,8-41.88,10-11.19,1.63-22.44,2.84-33.69,4.07A335.74,335.74,0,0,1,222.33,258.29Zm8.46-2.63,0-.4c.58,0,1.16,0,1.74,0,12.77-.32,25.54-.71,38.22-2.27,10.51-1.29,21.05-2.42,31.47-4.21,17.47-3,34.47-8,51.27-13.63,17.54-5.87,34.39-13.29,49.9-23.47,9.82-6.45,19.5-13.13,29.29-19.64,8-5.32,15.22-11.61,22.41-17.94a8.41,8.41,0,0,0,1.22-1.24c.52-.69.52-1.49-.41-1.69a51.53,51.53,0,0,0-5.13-.75c-8.06-.92-16.13-1.81-24.2-2.72a1.67,1.67,0,0,1-1.67-2.08,40.65,40.65,0,0,1,1.35-5.92c1.32-3.84,3-7.57,4.25-11.43s2.17-7.51,3.14-11.29a2.32,2.32,0,0,0-.43-2c-.34-.3-1.33-.06-1.93.19a21.09,21.09,0,0,0-2.64,1.51c-17.32,10.36-35.17,19.74-53.25,28.72-16.84,8.37-34.35,14.9-52.84,18.48-10.11,1.95-20.32,3.34-30.47,5.06a372.65,372.65,0,0,1-51.53,4.75c-14.35.4-28.73.86-43.07-.61-9.67-1-19.4-1.55-29-3-21.53-3.22-42.86-7.52-64.06-12.45-18.23-4.25-36.13-9.78-53.95-15.48-5.36-1.71-10.43-4.35-15.59-6.65-1.45-.64-2.75-1.62-4.16-2.36a2,2,0,0,0-1.6-.21c-.32.19-.44,1-.32,1.53.73,2.81,1.5,5.61,2.35,8.38,2,6.38,3.91,12.77,6,19.09a3.82,3.82,0,0,1-2,5.08c-1.56.75-3.18,1.41-4.8,2-6.51,2.5-13,5-19.52,7.45a28.87,28.87,0,0,0-2.82,1.17c-1,.5-2.67.75-2.45,2.05.14.85,1.5,1.67,2.48,2.16,2.46,1.23,5,2.31,7.55,3.38,5.75,2.42,11.54,4.75,17.27,7.2a527.19,527.19,0,0,0,62.33,22.08,553.38,553.38,0,0,0,96,18.4C204.41,254.29,217.62,254.79,230.79,255.66ZM283.24,3.09A45.38,45.38,0,0,0,270.32,4.8a3.8,3.8,0,0,0-1,.72c.27.3.48.73.82.89a10.5,10.5,0,0,0,2.06.65c15,3.38,27.75,10.82,38.89,21.23A6.89,6.89,0,0,1,312.4,30a1.38,1.38,0,0,1-.21,1.18c-.23.29-.83.6-1.09.49a14,14,0,0,1-3-1.63c-3-2.3-5.83-4.81-8.87-7a74.57,74.57,0,0,0-30-13.4C262.35,8.2,255.7,8.42,249.74,13a58.77,58.77,0,0,0-13.56,14c-.53.79-1.29,2.32-1,2.59,1,1.05,2-.25,3-.6a15.05,15.05,0,0,0,1.56-.77c11.47-5.27,23.16-6.05,35.15-1.9,8.67,3,16,8.14,22.79,14.14a5.19,5.19,0,0,1,1.41,1.63,2.59,2.59,0,0,1,.12,2c-.52.94-1.53.77-2.27.2-1.6-1.24-3.13-2.59-4.7-3.87-6-4.89-12.48-9-19.93-11.36-14.05-4.48-26.91-2-38.73,6.61a14.76,14.76,0,0,0-5.68,7.51c-1.12,3.45-2.33,6.87-3.27,10.37a30.3,30.3,0,0,0-.26,14.66c1.22,5.31,4.55,7,9.35,4.51A54,54,0,0,0,242,67.11c2.84-2.25,5.32-4.94,8.15-7.21a39.23,39.23,0,0,1,7.55-5.06,16,16,0,0,1,16.9,1.55A28,28,0,0,1,284.21,68a132.36,132.36,0,0,1,5.28,14.26,48.77,48.77,0,0,1,1.78,22.36,37.38,37.38,0,0,1-8.55,19.22,21.87,21.87,0,0,1-11.6,7.29c-4.65,1.13-9.3,2.29-13.89,3.65a115.23,115.23,0,0,0-13.18,4.43c-7,3-13.11,7.33-17.58,13.8-2.64,3.82-4.46,7.69-4.36,12.45.07,3.19,1,4.64,4.28,4.61a18.76,18.76,0,0,0,6.34-1.2c3.24-1.25,6.32-2.91,9.46-4.42,9.66-4.67,19.73-7.75,30.57-7.49,5.07.12,10.15.42,15.18,1a89.18,89.18,0,0,1,20.79,4.54,118.24,118.24,0,0,1,24,12.3,8.2,8.2,0,0,0,7.71,1,210.2,210.2,0,0,0,26.76-10.41c8-3.81,15.88-7.84,23.76-11.87,3.16-1.62,3.11-2,1.4-4.95-2.18-3.77-4.45-7.51-6.31-11.43q-13.66-28.69-27.13-57.49a292.37,292.37,0,0,0-28-48.08,103.85,103.85,0,0,0-12.5-14.49C308.49,7.78,296.67,3.42,283.24,3.09ZM153.64,6.18c-16.27.08-29.26,6.51-39.16,19.35a73.79,73.79,0,0,0-10.48,19C97.58,61.33,91.1,78.12,84.7,94.94c-5.33,14-10.76,27.89-15.81,42a138.6,138.6,0,0,1-8.33,19.6c-2.48,4.54-2.36,4.75,2.53,6.19C72.7,165.5,82.28,168.41,92,171c9.25,2.45,18.62,4.47,27.92,6.73a9.39,9.39,0,0,0,7.78-1.47,85.24,85.24,0,0,1,23.9-10.3,60.51,60.51,0,0,1,15.93-2c6.89,0,13.53,1.49,20.17,3.08,5.08,1.22,10.15,2.54,15.28,3.45a41.9,41.9,0,0,0,9.1.4,5.85,5.85,0,0,0,5.82-4.41c1.29-4.69.73-8.93-3.32-12.19-1.13-.91-2.24-1.85-3.41-2.71a68.81,68.81,0,0,0-17-8.78c-6.67-2.47-13.41-4.74-20.11-7.11a45.17,45.17,0,0,1-15.51-9.45,21.76,21.76,0,0,1-7-12.27,97.62,97.62,0,0,1-1.4-9.91,59.08,59.08,0,0,1,3-24.88,31.3,31.3,0,0,1,17.46-19c8.21-3.66,16.12-2.89,23.53,2.25,1.43,1,2.71,2.19,4,3.29s2.62,2.31,4,3.31A17.35,17.35,0,0,0,211,72.5c4.36.31,6.92-1.81,7.35-6.13a10.79,10.79,0,0,0-.06-2.6,76.62,76.62,0,0,0-6.22-22.13,14,14,0,0,0-4.73-5.56c-9.61-6.79-20.37-8.14-31.6-6.24-10.67,1.82-18.83,8-25.5,16.25-1.27,1.58-2.5,3.2-3.82,4.75a5.79,5.79,0,0,1-1.69,1.3,1.33,1.33,0,0,1-1.18-.2c-.29-.23-.59-.82-.48-1.1a15.83,15.83,0,0,1,1.56-3.07,60.54,60.54,0,0,1,10.42-11.66c9.06-7.66,19.52-11.31,31.37-10.48a44.81,44.81,0,0,1,14.45,2.92,3.62,3.62,0,0,0,1.24.38,3.12,3.12,0,0,0,1.5-.38c.11-.06,0-.84-.23-1.17a40.26,40.26,0,0,0-8.3-9.45,25.14,25.14,0,0,0-16.76-6.21,55,55,0,0,0-34.67,12.11,44.65,44.65,0,0,0-10.93,12.3c-1.11,1.86-2.39,3.62-3.68,5.37a1.27,1.27,0,0,1-1.17.19c-.32-.13-.76-.65-.71-.93a8.71,8.71,0,0,1,.77-2.88,51.09,51.09,0,0,1,8.22-11.73A55.59,55.59,0,0,1,159.6,11.58c2.35-.74,4.75-1.32,7.1-2.08.41-.13.64-.81,1-1.23-.36-.23-.69-.62-1.06-.66C162.28,7.1,158,6.65,153.64,6.18Zm134.92,91c-.34-2.73-.56-5.48-1.05-8.18a73.13,73.13,0,0,0-6.36-19.37,27.33,27.33,0,0,0-8.85-10.58c-4.16-2.9-8.61-3.53-13.14-1.22A41.63,41.63,0,0,0,252,62.72c-2.82,2.28-5.31,5-8.18,7.18a58,58,0,0,1-9.08,5.93c-5.16,2.61-8.43,1.64-12.13-2.93-1.33-1.65-1.71-1.82-3-.37-2.88,3.16-6.45,3.59-10.37,3a21.54,21.54,0,0,1-10.52-4.91c-2-1.64-3.91-3.48-6-5-7.46-5.45-15.28-5.76-23.28-1.26-7.21,4.06-11.63,10.3-13.91,18.18-2.64,9.12-2.33,18.35-1.32,27.63.8,7.47,4.63,12.95,10.8,17a47.12,47.12,0,0,0,10.8,5.54c6.73,2.3,13.47,4.59,20.1,7.14,8.45,3.24,16.46,7.27,22.88,13.91,1.31,1.35,1.9,1.21,3.13-.35.8-1,1.56-2.1,2.29-3.18a37.54,37.54,0,0,1,12.14-11,70,70,0,0,1,18.51-7.46c5.34-1.38,10.65-2.85,16-4.22a17.2,17.2,0,0,0,8.11-4.84,30.38,30.38,0,0,0,5.89-8.57A44,44,0,0,0,288.56,97.19Zm-66.75,93.55c11.31-.32,19.14-.46,27-.79,5.5-.23,11-.55,16.49-1.14,8.36-.89,16.72-1.85,25-3.13,11.74-1.82,23.43-4,35.14-6a23.14,23.14,0,0,0,3.36-.9c1.13-.39,1.28-1.17.43-1.91a7.13,7.13,0,0,0-1-.79c-10.51-6.3-21.35-11.75-33.66-13.6-3.15-.47-6.3-1-9.46-1.42a75.11,75.11,0,0,0-24.67.55,79,79,0,0,0-17.95,6.52c-3.27,1.55-6.56,3.09-9.93,4.41-3.78,1.47-7.64,1.79-11.32-.42a2.76,2.76,0,0,0-3.24.12c-3.88,2.53-8.16,2.64-12.58,2.11-6.94-.82-13.65-2.71-20.39-4.43a68,68,0,0,0-24.13-2.17c-10.28,1.09-19.64,4.89-28.68,9.65-.57.3-.91,1-1.36,1.57a10.08,10.08,0,0,0,1.75,1.17,11.13,11.13,0,0,0,2.11.45c19.77,4,39.6,7.44,59.76,8.85C204.72,190.17,215,190.77,221.81,190.74Z"/><g id="Ap05cg"><path class="cls-3" d="M227.8,213.23l1.31.12c4.25.4,4.26.41,5.72-3.43.42-1.1.93-2.07,2.32-1.71s1.26,1.41,1.18,2.47-.54,2.36-.06,3,1.89.27,2.9.36a6.25,6.25,0,0,1,.87.09c1.06.27,2.33.47,2.19,1.92s-1.33,1.72-2.58,1.69-2.34,0-3.49-.12-1.7.4-1.67,1.45a76.34,76.34,0,0,0,.37,9.21,4.89,4.89,0,0,0,6.33,3.75,25.73,25.73,0,0,0,5.39-2.72,2.27,2.27,0,0,0,.74-1.8c-.32-4.17-.32-8.39,1.33-12.25a71.27,71.27,0,0,1,5.84-10.8,14.65,14.65,0,0,1,4.61-3.86,5.37,5.37,0,0,1,6.34,0,5.78,5.78,0,0,1,2.22,6.17,25.85,25.85,0,0,1-2,5.91c-2.72,6-7,10.88-11.63,15.52-1.89,1.9-1.66,3,.92,4a14.36,14.36,0,0,0,3.39.68c3.15.39,3.23.23,4.21-2.66a15.31,15.31,0,0,1,10.85-10.27,4.44,4.44,0,0,1,5.53,5.66,10.93,10.93,0,0,1-3.14,4.78c-2.33,1.89-5.12,3.22-7.7,4.82a12.37,12.37,0,0,0-1.39,1.14c.5.48,1,1.37,1.49,1.36a19.89,19.89,0,0,0,5-.57,15.43,15.43,0,0,0,3.22-1.77c1-.54,2-.5,2.41.52a2.5,2.5,0,0,1-.53,2.21,12.13,12.13,0,0,1-10.61,3.35,6,6,0,0,1-4.5-3.44,1.85,1.85,0,0,0-2.2-1.18c-4.15.4-7.94-.5-10.79-3.76-.93-1.06-1.57-.53-2.39,0-2.57,1.69-5.28,3-8.5,2.89a9,9,0,0,1-8.31-7.53,4.36,4.36,0,0,0-.31-.9,4.48,4.48,0,0,0-.81.6c-.83,1-1.67,2-2.4,3a16.34,16.34,0,0,1-5.37,4.92c-4.6,2.6-7.54.29-8.55-4.27-.1-.46-.16-.93-.24-1.39a5.78,5.78,0,0,0-1.14.86,28.44,28.44,0,0,1-2.57,3.17,26.86,26.86,0,0,1-5.78,4.43c-3.67,1.75-7.76-.68-8.59-4.67a6.39,6.39,0,0,0-.58-1.32,8,8,0,0,0-1.38.85c-2.6,2.48-5.42,4.57-9.09,5.2a8.45,8.45,0,0,1-7.67-2c-1.25-1.17-2.25-1.32-3.7-.12a9.66,9.66,0,0,1-9.18,1.84c-2.65-.75-4.92-3-5.13-5.56-.25-2.87,1.69-6.66,4.08-7.32a10.32,10.32,0,0,1,9.41,1.83c2.69,2,2.74,2,4.39-1.07.68-1.28,1.28-2.59,1.94-3.88.55-1.09.7-1.75-1-1.93a15.77,15.77,0,0,1-8.12-3.4c-2.77-2.19-4.6-4.61-3.6-8.5a11.32,11.32,0,0,1,6.59-8.05,2.19,2.19,0,0,1,1.45-.28c.74.3,1.72.75,1.92,1.37.16.47-.58,1.62-1.17,1.87-2.67,1.13-4.53,2.9-5,5.79a4.33,4.33,0,0,0,.41,2.93c2.45,3.4,6.11,4.48,10.1,4.57.54,0,1.27-.8,1.63-1.39,1.32-2.24,2.37-4.65,3.82-6.79a28.34,28.34,0,0,1,8.26-7.84,6.93,6.93,0,0,1,3-1.16c5.5-.52,8.71,2.3,6.62,8A17.88,17.88,0,0,1,193.15,219c-2.14.65-4.32,1.19-6.45,1.89a3,3,0,0,0-1.56,1.24c-1.76,3.14-3.47,6.32-5.09,9.54a1.88,1.88,0,0,0,.29,1.77c1.85,1.55,4,2.56,6.42,1.6a14,14,0,0,0,4.65-2.63c2.13-2.1,4.25-4.3,5.3-7.28.23-.65,1.38-1,2.11-1.45.49.8,1.4,1.61,1.39,2.4a20,20,0,0,0,.91,7.24c.75,2,2,2.87,3.92,1.78a15.39,15.39,0,0,0,4.4-3.43,29.09,29.09,0,0,0,6-13.26c.4-2.44.23-2.58-2.19-2.79a9.73,9.73,0,0,1-3-.47c-.59-.25-1.4-1.23-1.28-1.65a2.7,2.7,0,0,1,1.69-1.59,11.44,11.44,0,0,1,3.25,0c2.56.15,2.55.15,3.17-2.25a4.28,4.28,0,0,1,.63-1.81,3.72,3.72,0,0,1,2.16-1.39c.55,0,1.41,1,1.61,1.68a6.38,6.38,0,0,1-.16,2.73c-.23,1.35.16,2.1,1.65,2.1s3.2.08,4.8.12Zm-8.9,10.32c.22,3.11.31,5.41.56,7.7.22,1.93,1.23,2.44,2.76,1.36,1.7-1.2,3.69-2.32,4.77-4a94.67,94.67,0,0,0,5.09-9.74c.52-1.05.12-1.48-1.1-1.58-3.09-.25-6.16-.71-9.26-.95a1.88,1.88,0,0,0-1.47,1C219.64,219.66,219.22,222,218.9,223.55Zm34.37-.72c0,.36,0,.72,0,1.08s0,.81,0,1.22c.44-.17.89-.31,1.32-.5a1.77,1.77,0,0,0,.5-.41,48.28,48.28,0,0,0,10.26-15.42,9,9,0,0,0,.68-3.14c0-1.93-1.17-2.68-2.86-1.74a11.36,11.36,0,0,0-3.38,2.66A30.59,30.59,0,0,0,253.27,222.83Zm-51-17c-.33-1.78-1.12-2.47-2.67-2.12a8.19,8.19,0,0,0-2,.82c-4.47,2.4-7.06,6.41-9.25,10.75a3.34,3.34,0,0,0-.15,1,3.6,3.6,0,0,0,1,0,18.17,18.17,0,0,0,10.25-6A35.31,35.31,0,0,0,202.3,205.82Zm-34.24,23.42c-2-.06-3.56,1.13-3.65,2.86-.07,1.4,1.63,3.06,3.3,3.21,1.51.14,5.65-1.86,5.68-2.75S169.82,229.3,168.06,229.24Zm100.71,2.28A9.82,9.82,0,0,0,270,231c1.79-1.1,3.62-2.15,5.31-3.37a5.74,5.74,0,0,0,1.67-2.21c.55-1.21,0-1.78-1.3-1.55-2.28.4-6.49,4.45-7,6.73A3.34,3.34,0,0,0,268.77,231.52Z"/><path class="cls-3" d="M348.22,191.7c-.61,6.93-3.54,12.33-7.38,17.34a8.64,8.64,0,0,1-1.46,1.29c-1.51,1.2-1.86,2.39-1.08,4.07a1,1,0,0,0,.84.09c.46-.55.75-1.24,1.23-1.77,2.13-2.33,4.22-4.7,6.49-6.89a5.38,5.38,0,0,1,4.81-1.52,2.82,2.82,0,0,1,2.47,3.68c-.66,3.69-3.12,5.9-6.17,7.67a8.8,8.8,0,0,0-1.19,1c.44.24.86.51,1.31.7a5.07,5.07,0,0,0,4.74-.74,3.91,3.91,0,0,0,1.13-1c3.56-5,6.05-10.28,5-16.64-.17-1.05-.41-2.25,1-2.73a2.49,2.49,0,0,1,3,1.91c.54,1.64,1,3.31,1.64,4.89.27.65,1,1.1,1.52,1.64.55-.62,1.47-1.18,1.6-1.88.55-2.89.87-5.81,1.25-8.73,0-.28-.17-.62-.07-.85.39-.92.63-2.16,1.35-2.62,1-.66,2.07.13,2.72,1.12,1.46,2.25,2.94,4.48,4.31,6.78.68,1.13,1.2,1.09,1.82,0,1.85-3.1,3.72-6.19,5.51-9.32a1.92,1.92,0,0,0-.54-2.82c-2.47-1.9-3.87-4.27-2.87-7.53a8.41,8.41,0,0,1,7.44-6.39,12.33,12.33,0,0,1,12.95,8.41c.53,1.68,1.15,2.3,2.86,1.55a3.59,3.59,0,0,1,2.11-.35c.67.18,1.57.76,1.7,1.32a2.26,2.26,0,0,1-1,1.82,11.08,11.08,0,0,1-3.22,1.26c-1.46.36-1.78,1.39-2.16,2.62a39.83,39.83,0,0,1-2.51,6.63c-2.6,5-9.15,5.33-11.81-.14a10.56,10.56,0,0,0-1.11-1.5l-1.1,1.52c-1.78,2.43-3.62,4.82-5.28,7.34a3.24,3.24,0,0,0-.15,2.35c.87,3.4,1.42,6.84.43,10.26-1.94,6.74-7,10-13.57,11.16a11,11,0,0,1-3.87.18,3.72,3.72,0,0,1-3.07-5.19,22.41,22.41,0,0,1,3.64-6.54c3.26-3.77,6.82-7.29,10.43-10.72,1-1,1.24-1.62.56-2.71-.19-.3-.31-.65-.51-.95-.4-.57-.83-1.12-1.24-1.68-.23.64-.44,1.28-.69,1.91-.61,1.5-1.13,3.05-1.87,4.49-1.55,3-4.06,3.83-7,2.22-1-.56-1.3-.5-1.57.63a22.2,22.2,0,0,1-4.16,8.95c-3.6,4.55-9.23,5.27-13.9,1.79-1.75-1.3-1.53-1.2-2.42.76-1.08,2.41.2,4.34.79,6.42.29,1,.82,2-.42,2.64a2,2,0,0,1-2.81-1.26c-1.38-3.48-2.64-7-4-10.5a13.39,13.39,0,0,0-1.05-1.78c-.9.72-2.25.9-2.3,2.55a23.11,23.11,0,0,1-.81,5.93c-1,3.4-3.91,5.68-6.48,5.57s-5-2.21-6.06-5.76c-.55-1.8-1-3.32-3.08-4.25s-2.44-3.16-1.27-5.58c2.31-4.82,7.33-7.1,12.08-5.41,1.72.61,3.27,1.5,3.85,3.46.26.89.79,1,1.65.49a4.82,4.82,0,0,0,2.78-4.91,65.43,65.43,0,0,1,1.2-13.53,20.51,20.51,0,0,1,3.41-7.12c1.33-2,3.43-3.24,6-2.43s3.39,2.94,3.57,5.41C348.21,190.62,348.21,191.42,348.22,191.7Zm-2.9,20.67c2-.28,3.19-1.74,4.3-3.22.13-.17,0-.51.05-.77-.25.06-.6.05-.75.21-1.21,1.26-2.38,2.55-3.56,3.83h0Zm31.44-.21c-.08-.89-.14-2-.31-3a5,5,0,0,0-.61-1.29,9.44,9.44,0,0,0-1,.75c-2.32,2.26-4.74,4.42-6.89,6.82a36,36,0,0,0-4.23,5.94c-.89,1.55-.35,2.16,1.38,1.75a47,47,0,0,0,4.92-1.58A10.48,10.48,0,0,0,376.76,212.16Zm13.55-36-.24-.42a22.15,22.15,0,0,0-4.12,2.44,3,3,0,0,0,.64,5.2,14,14,0,0,0,10.84,1c.35-.1.74-1,.68-1.46C397.71,179.69,393.57,176.17,390.31,176.14Zm-52.53,25.39.29.07c0,.93-.08,1.87-.07,2.8a7.17,7.17,0,0,0,.23,1.21,4.1,4.1,0,0,0,.95-.72c2.71-3.87,4.92-8,5.24-12.78.09-1.25-.23-3.39-.92-3.65-1.47-.56-2.17,1.21-2.87,2.34a8,8,0,0,0-.94,2.16C339,195.81,338.41,198.67,337.78,201.53Zm55-12.63v-.1a17.51,17.51,0,0,0-2.61,0c-.31,0-.88.64-.82.78a40.7,40.7,0,0,0,2.52,5.44,2.39,2.39,0,0,0,2.24.39c2.47-1.16,3.12-3.63,3.84-6,0-.17-.57-.78-.88-.78C395.61,188.64,394.18,188.8,392.75,188.9ZM321,217l.09.33c1.61-.6,3.24-1.15,4.8-1.85.25-.11.42-1,.24-1.33-.8-1.43-1.87-2.65-3.76-2.32-2.25.4-4.35,1.17-5.49,3.33-.14.29.38,1.29.75,1.39A20.86,20.86,0,0,0,321,217Zm6.62,3.88c0-1.3-.26-1.77-1.56-1.24a13.24,13.24,0,0,1-3.48,1.08c-1.5.17-1.38.93-1,1.9a7.89,7.89,0,0,0,.72,1.56c1.07,1.73,2.38,1.89,3.56.27A24.34,24.34,0,0,0,327.65,220.83Z"/><path class="cls-3" d="M78,198.58c-2.24-.57-3.91-.11-5.11,1.87-.62,1-1.66,1.82-2.35,2.82a1.81,1.81,0,0,0-.13,1.65c1.84,2.23,3.7,4.45,5.74,6.49a7,7,0,0,0,7.44,1.74c1.11-.34,2.27-.53,3.34-1a1.77,1.77,0,0,0,1-2.74c-3-5,0-10.18,6-10.45a11.41,11.41,0,0,1,11.18,8.27c.44,1.58,1,1.61,2.2,1.06a23.61,23.61,0,0,1,4.25-1.64,3.63,3.63,0,0,1,2.77.39c.43.34.28,1.72,0,2.52-1.17,3.78-2.46,7.52-3.71,11.28a.49.49,0,0,0,0,.21c.14.89.29,1.79.43,2.68a10,10,0,0,0,2-1.39,18.32,18.32,0,0,0,4.82-10,2.94,2.94,0,0,1,.26-1.25c.47-.67,1-1.68,1.66-1.74a3.73,3.73,0,0,1,2.32,1.12c.8.71,1.28,1.76,2.07,2.48,1.51,1.39,1.52,1.26,2.74-.33a19.09,19.09,0,0,1,4.06-4.46c2.46-1.66,5.33-2.54,8.4-1.47,3.92,1.38,4.6,5,2,8.14-3,3.6-6.85,4.61-11.18,4.5-1.74,0-2.26.43-2.26,2.13,0,4.73,3,6.79,7.28,4.81a40.33,40.33,0,0,0,4.3-2.41c.89-.56,1.9-1,2.46,0a2.62,2.62,0,0,1-.15,2.46c-3.2,3.24-7,5.08-11.72,4.19-3.6-.68-6.22-4.37-6.32-8.62,0-1,.14-2,.12-3a2.58,2.58,0,0,0-.35-1.59,4,4,0,0,0-1.94-1.29c-.29-.06-.85,1-1.22,1.56-1.54,2.42-3.07,4.86-4.6,7.3a6.54,6.54,0,0,1-.41.51c-2.11,2.37-4.45,3.15-6.27,2.08s-2.86-4.34-2.1-7,1.38-5.14,2-7.72c.21-.79-.07-1.1-.89-.82-1.81.6-3.28,1.34-4.18,3.34a13.07,13.07,0,0,1-10,7.86,5.48,5.48,0,0,1-6.57-3.59,6,6,0,0,1-.53-1.86c-.07-1.43-.71-1.4-1.86-1-2.15.65-4.43,1.36-6.59.34a23.24,23.24,0,0,1-5-3.23,47.74,47.74,0,0,1-5.25-5.2c-1-1.18-1.68-1.15-2.77-.14a13.2,13.2,0,0,1-7,3.78,7.7,7.7,0,0,1-8.82-9.66c.91-3.47,5.85-6.36,9.75-5.7a10,10,0,0,1,6.12,3c1,1.15,1.88,1,2.71-.25.61-1,1.34-1.89,2-2.83A23.34,23.34,0,0,1,67,195.63a43,43,0,0,1-7-4.25c-3.2-2.68-3.49-6.92-1.14-10.39A16.16,16.16,0,0,1,65,175.64a6.88,6.88,0,0,1,5.65-.06A2.64,2.64,0,0,1,72,177.7c-.06,1.19-1.18,1.53-2.31,1.33-3.33-.59-8.13,2.85-8.27,6.19a4.46,4.46,0,0,0,1.31,3.23,31.59,31.59,0,0,0,5.5,3.36c1.19.64,2.55,1,3.77,1.57s1.56,0,2.13-.81c2.09-2.86,4.15-5.76,6.38-8.5,3.05-3.76,6.78-6.48,11.83-7,5.58-.59,11,4.3,9.54,10.08a10,10,0,0,1-4.61,5.82C91.39,196.77,84.79,198.29,78,198.58Zm15.44-17.53a11.48,11.48,0,0,0-8.3,4c-2.26,2.52-4.29,5.25-6.38,7.92a4.33,4.33,0,0,0-.46,1.34,4.13,4.13,0,0,0,1.43.24c4-.87,8.1-1.55,12-2.81,1.89-.61,3.54-2.19,5-3.6a4,4,0,0,0,1.1-4.74C97,181.59,95.26,181.29,93.41,181.05ZM58.25,200.53,58,201c-2.16-.13-3.73.58-4.37,2.11a3.56,3.56,0,0,0,.6,4.2c1.3,1.32,3,1.56,5,.48a36.7,36.7,0,0,0,3.92-2.68c.75-.53.91-1.19.06-1.71C61.61,202.36,59.92,201.47,58.25,200.53Zm32.66,15.65c-.06,3,1.28,4.12,3.81,2.87a22.35,22.35,0,0,0,4.88-3.78c.86-.79.76-1.43-.69-1.52a27.35,27.35,0,0,1-4.93-.69c-2.18-.54-2.4-.5-2.89,1.65A12,12,0,0,0,90.91,216.18Zm8-6.1c.67-.2,2.2-.33,2.29-.75a4.41,4.41,0,0,0-.66-3,7.32,7.32,0,0,0-5.19-3.25A4.39,4.39,0,0,0,91,204.6a4.16,4.16,0,0,0-.43,1.33c.41-.12.83-.22,1.23-.37.73-.28,1.46-.85,2.15-.8a2.78,2.78,0,0,1,1.8,1.23,1.77,1.77,0,0,1-.4,1.67c-1.57,1.37-.59,1.64.69,1.88Zm32.54,5.65c2.46-.25,4.82-.38,6.48-2.26a9.28,9.28,0,0,0,1.07-2.19c-.83-.28-1.72-.88-2.48-.75a7.67,7.67,0,0,0-5.75,3.73,6.8,6.8,0,0,0-.39,1.18Z"/><path class="cls-3" d="M303.45,215.26c-.21-2.73-.45-6-.69-9.21-.07-1-.63-.91-1.36-.7-2.09.59-4.21,1.11-6.29,1.72-1.26.36-2.61.72-3.14-.83s.75-2.35,2.08-2.71c4.81-1.31,9.63-2.55,14.45-3.82l6.32-1.63c.49-.13,1.06-.41,1.47-.27.74.25,1.82.65,2,1.2a2.3,2.3,0,0,1-1.05,2,61.91,61.91,0,0,1-8.72,2.5c-1.48.29-2.05.71-1.9,2.14.28,2.58.54,5.16.8,7.75q1,9.94,1.93,19.91a11.29,11.29,0,0,1,0,1.3c0,1.15.15,2.51-1.48,2.67s-1.87-1-2-2.25c-.81-5.78-1.64-11.56-2.43-17.34A17.7,17.7,0,0,1,303.45,215.26Z"/><path class="cls-3" d="M203.79,220.22c-.65.39-1.36,1.14-1.95,1.05s-1.07-1-1.6-1.55c.59-.52,1.14-1.41,1.76-1.46s1.22.79,1.84,1.24Z"/></g></g></g></svg>